# xmcd
#
# Track frame offsets: 
#        150
#        17081
#        33095
#        51814
#        69281
#        84264
#        100869
#        115357
#        132705
#        149136
#        166382
#        182068
#        198903
#        215596
#        232182
#        250418
#        268753
#        286710
#        304279
#        318678
#
# Disc length: 4404 seconds
#
# Revision: 3
# Processed by: cddbd v1.5.2PL0 Copyright (c) Steve Scherf et al.
# Submitted via: ExactAudioCopyFreeDBPlugin 1.0
#
DISCID=30113214
DTITLE=Various Artist - Promo Only Country Radio September 2006
DYEAR=2006
DGENRE=Country
TTITLE0=Keith Anderson - 3 Chord Country and American Rock N' Roll (Radi
TTITLE0=o Edit)
TTITLE1=Sugarland - Want To
TTITLE2=Leann Rimes - Some People (Radio Remix)
TTITLE3=Dierks Bentley - Every Mile A Memory
TTITLE4=Montgomery Gentry - Some People Change
TTITLE5=Sarah Buxton - Innocence
TTITLE6=Lane Turner - Let You Go (Album Version)
TTITLE7=Joe Nichols - I'll Wait For You
TTITLE8=Phil Vassar - The Woman In My Life
TTITLE9=The Lost Trailers - Why Me
TTITLE10=Alan Jackson - Like Red On A Rose
TTITLE11=Craig Morgan - Little Bit Of Life
TTITLE12=Katrina Elam - Love Is
TTITLE13=Bob Seger - Wait For Me
TTITLE14=Rodney Foster - Half Of My Mistakes
TTITLE15=Paulette Carlson - That Old Glass Case
TTITLE16=Kacey Jones - San Francisco Mabel Joy
TTITLE17=Darrell Scott - Goodle, USA
TTITLE18=Saving Jane - Girl Next Door (Country Mix)
TTITLE19=Kevin Sharp - You Are The Reason Why
EXTD=
EXTT0=
EXTT1=
EXTT2=
EXTT3=
EXTT4=
EXTT5=
EXTT6=
EXTT7=
EXTT8=
EXTT9=
EXTT10=
EXTT11=
EXTT12=
EXTT13=
EXTT14=
EXTT15=
EXTT16=
EXTT17=
EXTT18=
EXTT19=
PLAYORDER=
